<mxfile host="app.diagrams.net" modified="2024-04-16T12:24:41.202Z" agent="Mozilla/5.0 (Macintosh; Intel Mac OS X 10_15_7) AppleWebKit/537.36 (KHTML, like Gecko) Chrome/123.0.0.0 Safari/537.36" version="24.2.5" etag="dQx41AGOx2neQNDH3c78" type="github">
  <diagram name="Page-1" id="5LesYCLKp0BM7xX0Ozcx">
    <mxGraphModel>
      <root>
        <mxCell id="0" />
        <mxCell id="1" parent="0" />
      </root>
    </mxGraphModel>
  </diagram>
</mxfile>
